<?xml version="1.0" encoding="UTF-8" standalone="no"?>
<!-- Generator: Adobe Illustrator 27.0.0, SVG Export Plug-In . SVG Version: 6.00 Build 0)  -->

<svg
   version="1.1"
   x="0px"
   y="0px"
   viewBox="0 0 600 600"
   style="enable-background:new 0 0 600 600;"
   xml:space="preserve"
   id="svg16"
   xmlns="http://www.w3.org/2000/svg"
   xmlns:svg="http://www.w3.org/2000/svg"><defs
   id="defs20" />
<style
   type="text/css"
   id="style2">
	.st0{fill:#030303;}
	.st1{fill:none;stroke:#030303;stroke-width:40;stroke-miterlimit:10;}
</style>







<g
   id="Layer_8">
	<circle
   class="st0"
   cx="368.79"
   cy="368.46"
   r="81.05"
   id="circle11" />
	<path
   class="st0"
   d="M300,600c-80.13,0-155.47-31.21-212.13-87.87S0,380.13,0,300S31.21,144.53,87.87,87.87S219.87,0,300,0   S455.47,31.2,512.13,87.87C568.79,144.53,600,219.87,600,300s-31.21,155.47-87.87,212.13C455.47,568.79,380.13,600,300,600z    M300,51.87C163.18,51.87,51.87,163.18,51.87,300S163.18,548.13,300,548.13S548.13,436.82,548.13,300S436.82,51.87,300,51.87z"
   id="path13" />
</g>
</svg>
