<?xml version="1.0" encoding="utf-8"?>
<!-- Generator: Adobe Illustrator 27.0.0, SVG Export Plug-In . SVG Version: 6.00 Build 0)  -->
<svg version="1.1" xmlns="http://www.w3.org/2000/svg" xmlns:xlink="http://www.w3.org/1999/xlink" x="0px" y="0px"
	 viewBox="0 0 600 600" style="enable-background:new 0 0 600 600;" xml:space="preserve">
<style type="text/css">
	.st0{fill:#030303;}
	.st1{fill:none;stroke:#030303;stroke-width:40;stroke-miterlimit:10;}
	.st2{fill:#FFFFFF;}
</style>
<g id="Layer_2">
</g>
<g id="Layer_3">
</g>
<g id="_x31_x">
</g>
<g id="_x32_x">
</g>
<g id="_x33_x">
</g>
<g id="Layer_7">
</g>
<g id="Layer_6">
</g>
<g id="Layer_8">
	<circle class="st2" cx="368.79" cy="368.46" r="81.05"/>
	<path class="st2" d="M300,600c-80.13,0-155.47-31.21-212.13-87.87S0,380.13,0,300S31.21,144.53,87.87,87.87S219.87,0,300,0
		S455.47,31.2,512.13,87.87C568.79,144.53,600,219.87,600,300s-31.21,155.47-87.87,212.13C455.47,568.79,380.13,600,300,600z
		 M300,51.87C163.18,51.87,51.87,163.18,51.87,300S163.18,548.13,300,548.13S548.13,436.82,548.13,300S436.82,51.87,300,51.87z"/>
</g>
</svg>
