<?xml version="1.0" encoding="UTF-8" standalone="no"?>
<!DOCTYPE svg PUBLIC "-//W3C//DTD SVG 1.1//EN" "http://www.w3.org/Graphics/SVG/1.1/DTD/svg11.dtd">
<svg width="100%" height="100%" viewBox="0 0 600 600" version="1.1" xmlns="http://www.w3.org/2000/svg" xmlns:xlink="http://www.w3.org/1999/xlink" xml:space="preserve" xmlns:serif="http://www.serif.com/" style="fill-rule:evenodd;clip-rule:evenodd;stroke-linejoin:round;stroke-miterlimit:2;">
    <g transform="matrix(1.06914,0,0,1.06914,-20.7421,-12.1676)">
        <path d="M580.599,145.745L580.599,438.215C580.599,512.373 520.393,572.579 446.235,572.579L153.765,572.579C79.607,572.579 19.401,512.373 19.401,438.215L19.401,145.745C19.401,71.587 79.607,11.381 153.765,11.381L446.235,11.381C520.393,11.381 580.599,71.587 580.599,145.745Z" style="fill:white;"/>
    </g>
    <g id="Layer_8">
        <circle cx="343.87" cy="343.67" r="51.69" style="fill:rgb(3,3,3);"/>
        <path d="M300,491.35C248.89,491.35 200.84,471.45 164.7,435.3C128.56,399.15 108.65,351.11 108.65,300C108.65,248.89 128.55,200.84 164.7,164.69C200.85,128.54 248.89,108.64 300,108.64C351.11,108.64 399.16,128.54 435.3,164.69C471.44,200.84 491.35,248.88 491.35,300C491.35,351.12 471.45,399.16 435.3,435.3C399.15,471.44 351.11,491.35 300,491.35ZM300,141.73C212.73,141.73 141.73,212.73 141.73,300C141.73,387.27 212.73,458.27 300,458.27C387.27,458.27 458.27,387.27 458.27,300C458.27,212.73 387.27,141.73 300,141.73Z" style="fill:rgb(3,3,3);fill-rule:nonzero;"/>
    </g>
</svg>
