<?xml version="1.0" encoding="utf-8"?>
<!-- Generator: Adobe Illustrator 27.0.0, SVG Export Plug-In . SVG Version: 6.00 Build 0)  -->
<svg version="1.1" xmlns="http://www.w3.org/2000/svg" xmlns:xlink="http://www.w3.org/1999/xlink" x="0px" y="0px"
	 viewBox="0 0 600 600" style="enable-background:new 0 0 600 600;" xml:space="preserve">
<style type="text/css">
	.st0{fill:#030303;}
	.st1{fill:none;stroke:#030303;stroke-width:40;stroke-miterlimit:10;}
</style>
<g id="Layer_2">
</g>
<g id="Layer_3">
</g>
<g id="_x31_x">
</g>
<g id="_x32_x">
</g>
<g id="_x33_x">
</g>
<g id="Layer_7">
</g>
<g id="Layer_6">
</g>
<g id="Layer_8">
	<circle class="st0" cx="343.87" cy="343.67" r="51.69"/>
	<path class="st0" d="M300,491.35c-51.11,0-99.16-19.9-135.3-56.05s-56.05-84.19-56.05-135.3s19.9-99.16,56.05-135.31
		s84.19-56.05,135.3-56.05s99.16,19.9,135.3,56.05s56.05,84.19,56.05,135.31s-19.9,99.16-56.05,135.3S351.11,491.35,300,491.35z
		 M300,141.73c-87.27,0-158.27,71-158.27,158.27s71,158.27,158.27,158.27s158.27-71,158.27-158.27S387.27,141.73,300,141.73z"/>
</g>
</svg>
