<?xml version="1.0" encoding="utf-8"?>
<!-- Generator: Adobe Illustrator 27.0.0, SVG Export Plug-In . SVG Version: 6.00 Build 0)  -->
<svg version="1.1" xmlns="http://www.w3.org/2000/svg" xmlns:xlink="http://www.w3.org/1999/xlink" x="0px" y="0px"
	 viewBox="0 0 200 200" style="enable-background:new 0 0 200 200;" xml:space="preserve">
<style type="text/css">
	.st0{fill:#030303;}
</style>
<g id="Layer_2">
</g>
<g id="Layer_3">
</g>
<g id="_x31_x">
	<g>
		<circle class="st0" cx="99.99" cy="99.92" r="15.37"/>
	</g>
	<path class="st0" d="M78.06,49.02c28.2,0,51.06,22.86,51.06,51.06s-22.86,51.06-51.06,51.06s-51.06-22.86-51.06-51.06
		S49.87,49.02,78.06,49.02 M78.06,37.44c-8.45,0-16.65,1.66-24.38,4.93c-7.46,3.16-14.16,7.67-19.9,13.42s-10.26,12.44-13.42,19.9
		c-3.27,7.73-4.93,15.93-4.93,24.38s1.66,16.65,4.93,24.38c3.15,7.46,7.67,14.16,13.42,19.9c5.75,5.75,12.44,10.26,19.9,13.42
		c7.73,3.27,15.93,4.93,24.38,4.93s16.65-1.66,24.38-4.93c7.46-3.16,14.16-7.67,19.9-13.42c5.75-5.75,10.26-12.44,13.42-19.9
		c3.27-7.73,4.93-15.93,4.93-24.38s-1.66-16.65-4.93-24.38c-3.15-7.46-7.67-14.16-13.42-19.9s-12.44-10.26-19.9-13.42
		C94.72,39.1,86.51,37.44,78.06,37.44L78.06,37.44z"/>
	<path class="st0" d="M121.94,48.87c28.2,0,51.06,22.86,51.06,51.06s-22.86,51.06-51.06,51.06c-28.2,0-51.06-22.86-51.06-51.06
		S93.74,48.87,121.94,48.87 M121.94,37.29c-8.45,0-16.65,1.66-24.38,4.93c-7.46,3.16-14.16,7.67-19.9,13.42
		c-5.75,5.75-10.26,12.44-13.42,19.9c-3.27,7.73-4.93,15.93-4.93,24.38s1.66,16.65,4.93,24.38c3.15,7.46,7.67,14.16,13.42,19.9
		c5.75,5.75,12.44,10.26,19.9,13.42c7.73,3.27,15.93,4.93,24.38,4.93c8.45,0,16.65-1.66,24.38-4.93c7.46-3.15,14.16-7.67,19.9-13.42
		c5.75-5.75,10.26-12.44,13.42-19.9c3.27-7.73,4.93-15.93,4.93-24.38s-1.66-16.65-4.93-24.38c-3.15-7.46-7.67-14.16-13.42-19.9
		c-5.75-5.75-12.44-10.26-19.9-13.42C138.59,38.95,130.39,37.29,121.94,37.29L121.94,37.29z"/>
	<rect x="7.82" y="76.09" class="st0" width="19.19" height="12.7"/>
	<rect x="172.99" y="76.09" class="st0" width="19.19" height="12.7"/>
	<path class="st0" d="M42.66,88.79v-12.7c8.54,0,14.39,1.77,19.46,5.2l-2.82,18.63C59.31,91.48,51.67,89.56,42.66,88.79z"/>
	<path class="st0" d="M157.28,88.79v-12.7c-8.54,0-14.39,1.77-19.46,5.2l2.82,18.63C140.63,91.48,148.28,89.56,157.28,88.79z"/>
	<path class="st0" d="M14.17,88.79c1.51,0,2.16,0.61,1.93,2.1l0.72-2.1H14.17z"/>
	<path class="st0" d="M185.85,88.79c-1.51,0-2.16,0.61-1.93,2.1l-0.72-2.1H185.85z"/>
</g>
<g id="_x32_x">
</g>
<g id="_x33_x">
</g>
</svg>
