<?xml version="1.0" encoding="utf-8"?>
<!-- Generator: Adobe Illustrator 27.0.0, SVG Export Plug-In . SVG Version: 6.00 Build 0)  -->
<svg version="1.1" xmlns="http://www.w3.org/2000/svg" xmlns:xlink="http://www.w3.org/1999/xlink" x="0px" y="0px"
	 viewBox="0 0 400 400" style="enable-background:new 0 0 400 400;" xml:space="preserve">
<style type="text/css">
	.st0{fill:#030303;}
</style>
<g id="Layer_2">
</g>
<g id="Layer_3">
</g>
<g id="_x31_x">
</g>
<g id="_x32_x">
	<g>
		<circle class="st0" cx="199.98" cy="199.85" r="31.11"/>
	</g>
	<path class="st0" d="M155.6,96.8c57.08,0,103.35,46.27,103.35,103.35S212.68,303.51,155.6,303.51S52.24,257.23,52.24,200.15
		S98.51,96.8,155.6,96.8 M155.6,73.37c-17.11,0-33.71,3.36-49.36,9.97c-15.1,6.39-28.66,15.53-40.29,27.16s-20.77,25.19-27.16,40.29
		c-6.62,15.65-9.97,32.25-9.97,49.36s3.36,33.71,9.97,49.36c6.39,15.1,15.53,28.66,27.16,40.29s25.19,20.77,40.29,27.16
		c15.65,6.62,32.25,9.97,49.36,9.97s33.71-3.36,49.36-9.97c15.1-6.39,28.66-15.53,40.29-27.16c11.64-11.64,20.77-25.19,27.16-40.29
		c6.62-15.65,9.97-32.25,9.97-49.36s-3.36-33.71-9.97-49.36c-6.39-15.1-15.53-28.66-27.16-40.29
		c-11.64-11.64-25.19-20.77-40.29-27.16C189.31,76.72,172.7,73.37,155.6,73.37L155.6,73.37z"/>
	<path class="st0" d="M244.4,96.49c57.08,0,103.35,46.27,103.35,103.35S301.49,303.2,244.4,303.2
		c-57.08,0-103.35-46.27-103.35-103.35S187.32,96.49,244.4,96.49 M244.4,73.06c-17.11,0-33.71,3.36-49.36,9.97
		c-15.1,6.39-28.66,15.53-40.29,27.16c-11.64,11.64-20.77,25.19-27.16,40.29c-6.62,15.65-9.97,32.25-9.97,49.36
		s3.36,33.71,9.97,49.36c6.39,15.1,15.53,28.66,27.16,40.29c11.64,11.64,25.19,20.77,40.29,27.16c15.65,6.62,32.25,9.97,49.36,9.97
		c17.11,0,33.71-3.36,49.36-9.97c15.1-6.39,28.66-15.53,40.29-27.16c11.64-11.64,20.77-25.19,27.16-40.29
		c6.62-15.65,9.97-32.25,9.97-49.36s-3.36-33.71-9.97-49.36c-6.39-15.1-15.53-28.66-27.16-40.29
		c-11.64-11.64-25.19-20.77-40.29-27.16C278.12,76.42,261.51,73.06,244.4,73.06L244.4,73.06z"/>
	<rect x="13.39" y="151.6" class="st0" width="38.85" height="25.71"/>
	<rect x="347.76" y="151.6" class="st0" width="38.85" height="25.71"/>
	<path class="st0" d="M83.93,177.31V151.6c17.28,0,29.12,3.58,39.4,10.53l-5.71,37.71C117.63,182.75,102.16,178.86,83.93,177.31z"/>
	<path class="st0" d="M315.96,177.31V151.6c-17.28,0-29.12,3.58-39.4,10.53l5.71,37.71C282.26,182.75,297.73,178.86,315.96,177.31z"
		/>
	<path class="st0" d="M26.26,177.31c3.05,0,4.38,1.24,3.9,4.26l1.46-4.26H26.26z"/>
	<path class="st0" d="M373.79,177.31c-3.05,0-4.38,1.24-3.9,4.26l-1.46-4.26L373.79,177.31z"/>
</g>
<g id="_x33_x">
</g>
</svg>
