<?xml version="1.0" encoding="utf-8"?>
<!-- Generator: Adobe Illustrator 27.0.0, SVG Export Plug-In . SVG Version: 6.00 Build 0)  -->
<svg version="1.1" xmlns="http://www.w3.org/2000/svg" xmlns:xlink="http://www.w3.org/1999/xlink" x="0px" y="0px"
	 viewBox="0 0 600 600" style="enable-background:new 0 0 600 600;" xml:space="preserve">
<style type="text/css">
	.st0{fill:#030303;}
</style>
<g id="Layer_2">
</g>
<g id="Layer_3">
</g>
<g id="_x31_x">
</g>
<g id="_x32_x">
</g>
<g id="_x33_x">
	<g>
		<circle class="st0" cx="299.97" cy="299.77" r="47.12"/>
	</g>
	<path class="st0" d="M232.75,143.71c86.44,0,156.52,70.08,156.52,156.52S319.2,456.75,232.75,456.75S76.23,386.67,76.23,300.23
		S146.31,143.71,232.75,143.71 M232.75,108.23c-25.9,0-51.05,5.08-74.75,15.1c-22.87,9.67-43.4,23.51-61.02,41.13
		s-31.46,38.15-41.13,61.02c-10.02,23.69-15.1,48.84-15.1,74.75s5.08,51.05,15.1,74.75c9.67,22.87,23.51,43.4,41.13,61.02
		c17.62,17.62,38.15,31.46,61.02,41.13c23.69,10.02,48.84,15.1,74.75,15.1s51.05-5.08,74.75-15.1c22.87-9.67,43.4-23.51,61.02-41.13
		c17.62-17.62,31.46-38.15,41.13-61.02c10.02-23.69,15.1-48.84,15.1-74.75s-5.08-51.05-15.1-74.75
		c-9.67-22.87-23.51-43.4-41.13-61.02S330.37,133,307.5,123.33C283.81,113.31,258.66,108.23,232.75,108.23L232.75,108.23z"/>
	<path class="st0" d="M367.25,143.25c86.44,0,156.52,70.08,156.52,156.52s-70.08,156.52-156.52,156.52
		c-86.44,0-156.52-70.08-156.52-156.52S280.8,143.25,367.25,143.25 M367.25,107.77c-25.9,0-51.05,5.08-74.75,15.1
		c-22.87,9.67-43.4,23.51-61.02,41.13c-17.62,17.62-31.46,38.15-41.13,61.02c-10.02,23.69-15.1,48.84-15.1,74.75
		c0,25.9,5.08,51.05,15.1,74.75c9.67,22.87,23.51,43.4,41.13,61.02c17.62,17.62,38.15,31.46,61.02,41.13
		c23.69,10.02,48.84,15.1,74.75,15.1c25.9,0,51.05-5.08,74.75-15.1c22.87-9.67,43.4-23.51,61.02-41.13
		c17.62-17.62,31.46-38.15,41.13-61.02c10.02-23.69,15.1-48.84,15.1-74.75c0-25.9-5.08-51.05-15.1-74.75
		c-9.67-22.87-23.51-43.4-41.13-61.02c-17.62-17.62-38.15-31.46-61.02-41.13C418.3,112.85,393.15,107.77,367.25,107.77
		L367.25,107.77z"/>
	<rect x="17.39" y="226.7" class="st0" width="58.84" height="38.94"/>
	<rect x="523.77" y="226.7" class="st0" width="58.84" height="38.94"/>
	<path class="st0" d="M124.22,265.64V226.7c26.17,0,44.11,5.42,59.66,15.95l-8.64,57.11C175.26,273.88,151.83,267.98,124.22,265.64z
		"/>
	<path class="st0" d="M475.61,265.64V226.7c-26.17,0-44.11,5.42-59.66,15.95l8.64,57.11C424.57,273.88,448,267.98,475.61,265.64z"/>
	<path class="st0" d="M36.88,265.64c4.62,0,6.63,1.87,5.91,6.45l2.21-6.45H36.88z"/>
	<path class="st0" d="M563.18,265.64c-4.62,0-6.63,1.87-5.91,6.45l-2.21-6.45L563.18,265.64z"/>
</g>
</svg>
